<mxfile host="app.diagrams.net" modified="2024-02-06T13:24:52.548Z" agent="Mozilla/5.0 (Windows NT 10.0; Win64; x64) AppleWebKit/537.36 (KHTML, like Gecko) Chrome/120.0.0.0 Safari/537.36" etag="cOU3xqgB6x5TDnqHeEpa" version="23.1.1" type="device" pages="7">
  <diagram id="gfvRpNNqKpEoUPpv6p3L" name="DFD Contexto">
    <mxGraphModel dx="838" dy="438" grid="1" gridSize="10" guides="1" tooltips="1" connect="1" arrows="1" fold="1" page="1" pageScale="1" pageWidth="827" pageHeight="1169" math="0" shadow="0">
      <root>
        <mxCell id="0" />
        <mxCell id="1" parent="0" />
        <mxCell id="VUdHVL7eCYSjOaFZHe9a-21" style="edgeStyle=orthogonalEdgeStyle;rounded=0;orthogonalLoop=1;jettySize=auto;html=1;exitX=0;exitY=1;exitDx=0;exitDy=0;entryX=0.75;entryY=1;entryDx=0;entryDy=0;curved=1;" edge="1" parent="1" source="VUdHVL7eCYSjOaFZHe9a-1" target="VUdHVL7eCYSjOaFZHe9a-2">
          <mxGeometry relative="1" as="geometry">
            <Array as="points">
              <mxPoint x="528" y="350" />
              <mxPoint x="210" y="350" />
            </Array>
          </mxGeometry>
        </mxCell>
        <mxCell id="VUdHVL7eCYSjOaFZHe9a-23" value="Entregar Documentos" style="edgeLabel;html=1;align=center;verticalAlign=middle;resizable=0;points=[];" vertex="1" connectable="0" parent="VUdHVL7eCYSjOaFZHe9a-21">
          <mxGeometry x="-0.1729" y="-2" relative="1" as="geometry">
            <mxPoint y="-8" as="offset" />
          </mxGeometry>
        </mxCell>
        <mxCell id="uFGiPKk6KF2XWTelFvUz-1" style="edgeStyle=orthogonalEdgeStyle;rounded=0;orthogonalLoop=1;jettySize=auto;html=1;exitX=0.5;exitY=1;exitDx=0;exitDy=0;entryX=0;entryY=1;entryDx=0;entryDy=0;curved=1;" edge="1" parent="1" source="VUdHVL7eCYSjOaFZHe9a-1" target="VUdHVL7eCYSjOaFZHe9a-2">
          <mxGeometry relative="1" as="geometry">
            <Array as="points">
              <mxPoint x="620" y="440" />
              <mxPoint x="120" y="440" />
            </Array>
          </mxGeometry>
        </mxCell>
        <mxCell id="uFGiPKk6KF2XWTelFvUz-2" value="Entrega de Videos" style="edgeLabel;html=1;align=center;verticalAlign=middle;resizable=0;points=[];" vertex="1" connectable="0" parent="uFGiPKk6KF2XWTelFvUz-1">
          <mxGeometry x="-0.1509" y="-1" relative="1" as="geometry">
            <mxPoint x="10" y="11" as="offset" />
          </mxGeometry>
        </mxCell>
        <mxCell id="VUdHVL7eCYSjOaFZHe9a-1" value="Sistema" style="ellipse;whiteSpace=wrap;html=1;aspect=fixed;" vertex="1" parent="1">
          <mxGeometry x="490" y="110" width="260" height="260" as="geometry" />
        </mxCell>
        <mxCell id="VUdHVL7eCYSjOaFZHe9a-7" style="edgeStyle=orthogonalEdgeStyle;rounded=0;orthogonalLoop=1;jettySize=auto;html=1;exitX=0;exitY=0;exitDx=0;exitDy=0;entryX=0.5;entryY=0;entryDx=0;entryDy=0;curved=1;" edge="1" parent="1" source="VUdHVL7eCYSjOaFZHe9a-2" target="VUdHVL7eCYSjOaFZHe9a-1">
          <mxGeometry relative="1" as="geometry">
            <Array as="points">
              <mxPoint x="120" y="40" />
              <mxPoint x="620" y="40" />
            </Array>
          </mxGeometry>
        </mxCell>
        <mxCell id="VUdHVL7eCYSjOaFZHe9a-12" value="Gestión de documentos" style="edgeLabel;html=1;align=center;verticalAlign=middle;resizable=0;points=[];" vertex="1" connectable="0" parent="VUdHVL7eCYSjOaFZHe9a-7">
          <mxGeometry x="0.0876" relative="1" as="geometry">
            <mxPoint x="23" y="-10" as="offset" />
          </mxGeometry>
        </mxCell>
        <mxCell id="VUdHVL7eCYSjOaFZHe9a-2" value="Usuario" style="rounded=0;whiteSpace=wrap;html=1;" vertex="1" parent="1">
          <mxGeometry x="120" y="220" width="120" height="60" as="geometry" />
        </mxCell>
        <mxCell id="VUdHVL7eCYSjOaFZHe9a-5" style="edgeStyle=orthogonalEdgeStyle;rounded=0;orthogonalLoop=1;jettySize=auto;html=1;exitX=0.75;exitY=0;exitDx=0;exitDy=0;entryX=0.038;entryY=0.338;entryDx=0;entryDy=0;entryPerimeter=0;curved=1;" edge="1" parent="1" source="VUdHVL7eCYSjOaFZHe9a-2" target="VUdHVL7eCYSjOaFZHe9a-1">
          <mxGeometry relative="1" as="geometry">
            <Array as="points">
              <mxPoint x="210" y="190" />
              <mxPoint x="490" y="190" />
              <mxPoint x="490" y="198" />
            </Array>
          </mxGeometry>
        </mxCell>
        <mxCell id="VUdHVL7eCYSjOaFZHe9a-15" value="Gestion de Videos" style="edgeLabel;html=1;align=center;verticalAlign=middle;resizable=0;points=[];" vertex="1" connectable="0" parent="VUdHVL7eCYSjOaFZHe9a-5">
          <mxGeometry x="0.1054" y="-4" relative="1" as="geometry">
            <mxPoint y="-14" as="offset" />
          </mxGeometry>
        </mxCell>
        <mxCell id="VUdHVL7eCYSjOaFZHe9a-6" style="edgeStyle=orthogonalEdgeStyle;rounded=0;orthogonalLoop=1;jettySize=auto;html=1;exitX=0.25;exitY=0;exitDx=0;exitDy=0;entryX=0.335;entryY=0.023;entryDx=0;entryDy=0;entryPerimeter=0;curved=1;" edge="1" parent="1" source="VUdHVL7eCYSjOaFZHe9a-2" target="VUdHVL7eCYSjOaFZHe9a-1">
          <mxGeometry relative="1" as="geometry">
            <Array as="points">
              <mxPoint x="150" y="80" />
              <mxPoint x="577" y="80" />
            </Array>
          </mxGeometry>
        </mxCell>
        <mxCell id="VUdHVL7eCYSjOaFZHe9a-13" value="Gestion de Usuarios" style="edgeLabel;html=1;align=center;verticalAlign=middle;resizable=0;points=[];" vertex="1" connectable="0" parent="VUdHVL7eCYSjOaFZHe9a-6">
          <mxGeometry x="0.184" relative="1" as="geometry">
            <mxPoint y="-10" as="offset" />
          </mxGeometry>
        </mxCell>
        <mxCell id="VUdHVL7eCYSjOaFZHe9a-10" style="edgeStyle=orthogonalEdgeStyle;rounded=0;orthogonalLoop=1;jettySize=auto;html=1;exitX=1;exitY=0.5;exitDx=0;exitDy=0;entryX=0.018;entryY=0.595;entryDx=0;entryDy=0;entryPerimeter=0;curved=1;" edge="1" parent="1" source="VUdHVL7eCYSjOaFZHe9a-2" target="VUdHVL7eCYSjOaFZHe9a-1">
          <mxGeometry relative="1" as="geometry">
            <Array as="points">
              <mxPoint x="240" y="280" />
              <mxPoint x="480" y="280" />
              <mxPoint x="480" y="265" />
            </Array>
          </mxGeometry>
        </mxCell>
        <mxCell id="VUdHVL7eCYSjOaFZHe9a-17" value="Inicio sesion" style="edgeLabel;html=1;align=center;verticalAlign=middle;resizable=0;points=[];" vertex="1" connectable="0" parent="VUdHVL7eCYSjOaFZHe9a-10">
          <mxGeometry x="0.0022" y="-3" relative="1" as="geometry">
            <mxPoint y="-13" as="offset" />
          </mxGeometry>
        </mxCell>
        <mxCell id="VUdHVL7eCYSjOaFZHe9a-11" style="edgeStyle=orthogonalEdgeStyle;rounded=0;orthogonalLoop=1;jettySize=auto;html=1;exitX=1;exitY=0.75;exitDx=0;exitDy=0;entryX=0.038;entryY=0.692;entryDx=0;entryDy=0;entryPerimeter=0;curved=1;" edge="1" parent="1" source="VUdHVL7eCYSjOaFZHe9a-2" target="VUdHVL7eCYSjOaFZHe9a-1">
          <mxGeometry relative="1" as="geometry">
            <Array as="points">
              <mxPoint x="240" y="310" />
              <mxPoint x="480" y="310" />
              <mxPoint x="480" y="290" />
            </Array>
          </mxGeometry>
        </mxCell>
        <mxCell id="VUdHVL7eCYSjOaFZHe9a-18" value="Registrar Usuario" style="edgeLabel;html=1;align=center;verticalAlign=middle;resizable=0;points=[];" vertex="1" connectable="0" parent="VUdHVL7eCYSjOaFZHe9a-11">
          <mxGeometry x="0.0945" y="2" relative="1" as="geometry">
            <mxPoint x="-12" y="-8" as="offset" />
          </mxGeometry>
        </mxCell>
        <mxCell id="gXGvTUsJRqXRaIwjtMnc-1" style="edgeStyle=orthogonalEdgeStyle;rounded=0;orthogonalLoop=1;jettySize=auto;html=1;entryX=0.294;entryY=0.958;entryDx=0;entryDy=0;entryPerimeter=0;endArrow=none;endFill=0;curved=1;startArrow=classic;startFill=1;" edge="1" parent="1" source="VUdHVL7eCYSjOaFZHe9a-2" target="VUdHVL7eCYSjOaFZHe9a-1">
          <mxGeometry relative="1" as="geometry">
            <Array as="points">
              <mxPoint x="160" y="380" />
              <mxPoint x="566" y="380" />
            </Array>
          </mxGeometry>
        </mxCell>
        <mxCell id="gXGvTUsJRqXRaIwjtMnc-2" value="Token" style="edgeLabel;html=1;align=center;verticalAlign=middle;resizable=0;points=[];" vertex="1" connectable="0" parent="gXGvTUsJRqXRaIwjtMnc-1">
          <mxGeometry x="0.1112" relative="1" as="geometry">
            <mxPoint x="17" y="-10" as="offset" />
          </mxGeometry>
        </mxCell>
      </root>
    </mxGraphModel>
  </diagram>
  <diagram name="Nivel 1" id="QsxJCXyQDLO-XXaSl1T5">
    <mxGraphModel dx="880" dy="1629" grid="1" gridSize="10" guides="1" tooltips="1" connect="1" arrows="1" fold="1" page="1" pageScale="1" pageWidth="827" pageHeight="1169" math="0" shadow="0">
      <root>
        <mxCell id="0" />
        <mxCell id="1" parent="0" />
        <mxCell id="-31QiWtkZ-d68Zm3Jk4v-1" value="1&lt;br&gt;Inicio Sesion" style="ellipse;whiteSpace=wrap;html=1;aspect=fixed;" vertex="1" parent="1">
          <mxGeometry x="260" y="-440" width="80" height="80" as="geometry" />
        </mxCell>
        <mxCell id="-31QiWtkZ-d68Zm3Jk4v-2" value="2&lt;br&gt;Registro" style="ellipse;whiteSpace=wrap;html=1;aspect=fixed;" vertex="1" parent="1">
          <mxGeometry x="260" y="-330" width="80" height="80" as="geometry" />
        </mxCell>
        <mxCell id="-31QiWtkZ-d68Zm3Jk4v-5" value="3&lt;br&gt;Gestión de Usuario" style="ellipse;whiteSpace=wrap;html=1;aspect=fixed;" vertex="1" parent="1">
          <mxGeometry x="560" y="-450" width="80" height="80" as="geometry" />
        </mxCell>
        <mxCell id="dy6lu4jCA6GnXcs1gmxg-1" value="4&lt;br&gt;Gestion de Documentos" style="ellipse;whiteSpace=wrap;html=1;aspect=fixed;" vertex="1" parent="1">
          <mxGeometry x="560" y="-340" width="80" height="80" as="geometry" />
        </mxCell>
        <mxCell id="dy6lu4jCA6GnXcs1gmxg-2" value="5&lt;br&gt;Gestión de Videos" style="ellipse;whiteSpace=wrap;html=1;aspect=fixed;" vertex="1" parent="1">
          <mxGeometry x="560" y="-220" width="80" height="80" as="geometry" />
        </mxCell>
        <mxCell id="kbTgPALm01EQsmsyO1KB-2" value="" style="endArrow=classic;html=1;rounded=0;" edge="1" parent="1">
          <mxGeometry width="50" height="50" relative="1" as="geometry">
            <mxPoint x="480" y="-410" as="sourcePoint" />
            <mxPoint x="560" y="-410" as="targetPoint" />
          </mxGeometry>
        </mxCell>
        <mxCell id="YszfrF7lHmZT1SVEbmhe-4" value="Token" style="edgeLabel;html=1;align=center;verticalAlign=middle;resizable=0;points=[];" vertex="1" connectable="0" parent="kbTgPALm01EQsmsyO1KB-2">
          <mxGeometry x="-0.425" relative="1" as="geometry">
            <mxPoint x="17" y="-10" as="offset" />
          </mxGeometry>
        </mxCell>
        <mxCell id="1bizFWe_RQqN-boknyeH-1" value="" style="endArrow=classic;html=1;rounded=0;" edge="1" parent="1">
          <mxGeometry width="50" height="50" relative="1" as="geometry">
            <mxPoint x="180" y="-400.5" as="sourcePoint" />
            <mxPoint x="260" y="-400.5" as="targetPoint" />
          </mxGeometry>
        </mxCell>
        <mxCell id="YszfrF7lHmZT1SVEbmhe-1" value="Credenciales" style="edgeLabel;html=1;align=center;verticalAlign=middle;resizable=0;points=[];" vertex="1" connectable="0" parent="1bizFWe_RQqN-boknyeH-1">
          <mxGeometry x="-0.35" y="-4" relative="1" as="geometry">
            <mxPoint x="14" y="-13" as="offset" />
          </mxGeometry>
        </mxCell>
        <mxCell id="1bizFWe_RQqN-boknyeH-2" value="" style="endArrow=classic;html=1;rounded=0;" edge="1" parent="1">
          <mxGeometry width="50" height="50" relative="1" as="geometry">
            <mxPoint x="180" y="-290.5" as="sourcePoint" />
            <mxPoint x="260" y="-290.5" as="targetPoint" />
          </mxGeometry>
        </mxCell>
        <mxCell id="YszfrF7lHmZT1SVEbmhe-3" value="Token" style="edgeLabel;html=1;align=center;verticalAlign=middle;resizable=0;points=[];" vertex="1" connectable="0" parent="1bizFWe_RQqN-boknyeH-2">
          <mxGeometry x="-0.15" y="-4" relative="1" as="geometry">
            <mxPoint x="6" y="-13" as="offset" />
          </mxGeometry>
        </mxCell>
        <mxCell id="1bizFWe_RQqN-boknyeH-3" value="" style="endArrow=classic;html=1;rounded=0;" edge="1" parent="1">
          <mxGeometry width="50" height="50" relative="1" as="geometry">
            <mxPoint x="340" y="-400.5" as="sourcePoint" />
            <mxPoint x="420" y="-400.5" as="targetPoint" />
          </mxGeometry>
        </mxCell>
        <mxCell id="YszfrF7lHmZT1SVEbmhe-2" value="Token" style="edgeLabel;html=1;align=center;verticalAlign=middle;resizable=0;points=[];" vertex="1" connectable="0" parent="1bizFWe_RQqN-boknyeH-3">
          <mxGeometry x="-0.025" y="4" relative="1" as="geometry">
            <mxPoint x="-9" y="-5" as="offset" />
          </mxGeometry>
        </mxCell>
        <mxCell id="1bizFWe_RQqN-boknyeH-4" value="" style="endArrow=classic;html=1;rounded=0;" edge="1" parent="1">
          <mxGeometry width="50" height="50" relative="1" as="geometry">
            <mxPoint x="640" y="-180.5" as="sourcePoint" />
            <mxPoint x="720" y="-180.5" as="targetPoint" />
          </mxGeometry>
        </mxCell>
        <mxCell id="k6pGlpwKPokE3DVFMuzr-4" value="Video" style="edgeLabel;html=1;align=center;verticalAlign=middle;resizable=0;points=[];" vertex="1" connectable="0" parent="1bizFWe_RQqN-boknyeH-4">
          <mxGeometry x="-0.025" y="3" relative="1" as="geometry">
            <mxPoint y="-6" as="offset" />
          </mxGeometry>
        </mxCell>
        <mxCell id="1bizFWe_RQqN-boknyeH-5" value="" style="endArrow=classic;html=1;rounded=0;" edge="1" parent="1">
          <mxGeometry width="50" height="50" relative="1" as="geometry">
            <mxPoint x="480" y="-300.5" as="sourcePoint" />
            <mxPoint x="560" y="-300.5" as="targetPoint" />
          </mxGeometry>
        </mxCell>
        <mxCell id="k6pGlpwKPokE3DVFMuzr-2" value="Token" style="edgeLabel;html=1;align=center;verticalAlign=middle;resizable=0;points=[];" vertex="1" connectable="0" parent="1bizFWe_RQqN-boknyeH-5">
          <mxGeometry x="-0.05" y="1" relative="1" as="geometry">
            <mxPoint x="12" y="-8" as="offset" />
          </mxGeometry>
        </mxCell>
        <mxCell id="1bizFWe_RQqN-boknyeH-6" value="" style="endArrow=classic;html=1;rounded=0;" edge="1" parent="1">
          <mxGeometry width="50" height="50" relative="1" as="geometry">
            <mxPoint x="640" y="-300.5" as="sourcePoint" />
            <mxPoint x="720" y="-300.5" as="targetPoint" />
          </mxGeometry>
        </mxCell>
        <mxCell id="k6pGlpwKPokE3DVFMuzr-1" value="Documento" style="edgeLabel;html=1;align=center;verticalAlign=middle;resizable=0;points=[];" vertex="1" connectable="0" parent="1bizFWe_RQqN-boknyeH-6">
          <mxGeometry x="0.075" y="2" relative="1" as="geometry">
            <mxPoint x="-13" y="-7" as="offset" />
          </mxGeometry>
        </mxCell>
        <mxCell id="1bizFWe_RQqN-boknyeH-7" value="" style="endArrow=classic;html=1;rounded=0;" edge="1" parent="1">
          <mxGeometry width="50" height="50" relative="1" as="geometry">
            <mxPoint x="480" y="-180.5" as="sourcePoint" />
            <mxPoint x="560" y="-180.5" as="targetPoint" />
          </mxGeometry>
        </mxCell>
        <mxCell id="k6pGlpwKPokE3DVFMuzr-3" value="Token" style="edgeLabel;html=1;align=center;verticalAlign=middle;resizable=0;points=[];" vertex="1" connectable="0" parent="1bizFWe_RQqN-boknyeH-7">
          <mxGeometry x="-0.025" y="-4" relative="1" as="geometry">
            <mxPoint y="-13" as="offset" />
          </mxGeometry>
        </mxCell>
      </root>
    </mxGraphModel>
  </diagram>
  <diagram id="vq0rlo-3QMxyem2iNrEH" name="Nivel 2 Inicio de sesion">
    <mxGraphModel dx="880" dy="460" grid="1" gridSize="10" guides="1" tooltips="1" connect="1" arrows="1" fold="1" page="1" pageScale="1" pageWidth="827" pageHeight="1169" math="0" shadow="0">
      <root>
        <mxCell id="0" />
        <mxCell id="1" parent="0" />
        <mxCell id="4oKLL1NqWJiivFE0fkYg-4" style="edgeStyle=entityRelationEdgeStyle;rounded=0;orthogonalLoop=1;jettySize=auto;html=1;exitX=1;exitY=0.5;exitDx=0;exitDy=0;" edge="1" parent="1" source="4oKLL1NqWJiivFE0fkYg-1" target="4oKLL1NqWJiivFE0fkYg-2">
          <mxGeometry relative="1" as="geometry" />
        </mxCell>
        <mxCell id="qNQ-7Bjq-Vl5UrtKh8L8-3" value="Credenciales" style="edgeLabel;html=1;align=center;verticalAlign=middle;resizable=0;points=[];" vertex="1" connectable="0" parent="4oKLL1NqWJiivFE0fkYg-4">
          <mxGeometry x="-0.0571" y="-2" relative="1" as="geometry">
            <mxPoint x="4" y="-12" as="offset" />
          </mxGeometry>
        </mxCell>
        <mxCell id="qNQ-7Bjq-Vl5UrtKh8L8-1" style="edgeStyle=orthogonalEdgeStyle;rounded=0;orthogonalLoop=1;jettySize=auto;html=1;exitX=0;exitY=0.5;exitDx=0;exitDy=0;curved=1;startArrow=classic;startFill=1;endArrow=none;endFill=0;" edge="1" parent="1" source="4oKLL1NqWJiivFE0fkYg-1">
          <mxGeometry relative="1" as="geometry">
            <mxPoint x="40" y="130" as="targetPoint" />
          </mxGeometry>
        </mxCell>
        <mxCell id="qNQ-7Bjq-Vl5UrtKh8L8-2" value="Credenciales" style="edgeLabel;html=1;align=center;verticalAlign=middle;resizable=0;points=[];" vertex="1" connectable="0" parent="qNQ-7Bjq-Vl5UrtKh8L8-1">
          <mxGeometry x="-0.2402" y="-6" relative="1" as="geometry">
            <mxPoint x="-7" y="16" as="offset" />
          </mxGeometry>
        </mxCell>
        <mxCell id="4oKLL1NqWJiivFE0fkYg-1" value="1.1&lt;br&gt;Validación de datos" style="ellipse;whiteSpace=wrap;html=1;aspect=fixed;" vertex="1" parent="1">
          <mxGeometry x="130" y="140" width="80" height="80" as="geometry" />
        </mxCell>
        <mxCell id="4oKLL1NqWJiivFE0fkYg-7" style="edgeStyle=orthogonalEdgeStyle;rounded=0;orthogonalLoop=1;jettySize=auto;html=1;exitX=1;exitY=0.5;exitDx=0;exitDy=0;" edge="1" parent="1" source="4oKLL1NqWJiivFE0fkYg-2" target="4oKLL1NqWJiivFE0fkYg-3">
          <mxGeometry relative="1" as="geometry" />
        </mxCell>
        <mxCell id="Ijn_JZbvdXBf6zitRrvQ-1" value="Usuario" style="edgeLabel;html=1;align=center;verticalAlign=middle;resizable=0;points=[];" vertex="1" connectable="0" parent="4oKLL1NqWJiivFE0fkYg-7">
          <mxGeometry x="0.14" y="-1" relative="1" as="geometry">
            <mxPoint x="-17" y="-11" as="offset" />
          </mxGeometry>
        </mxCell>
        <mxCell id="4oKLL1NqWJiivFE0fkYg-2" value="1.2&lt;br&gt;Se valida Usuario" style="ellipse;whiteSpace=wrap;html=1;aspect=fixed;" vertex="1" parent="1">
          <mxGeometry x="350" y="140" width="80" height="80" as="geometry" />
        </mxCell>
        <mxCell id="4oKLL1NqWJiivFE0fkYg-8" style="edgeStyle=orthogonalEdgeStyle;rounded=0;orthogonalLoop=1;jettySize=auto;html=1;exitX=1;exitY=0.5;exitDx=0;exitDy=0;curved=1;" edge="1" parent="1" source="4oKLL1NqWJiivFE0fkYg-3">
          <mxGeometry relative="1" as="geometry">
            <mxPoint x="740" y="40" as="targetPoint" />
          </mxGeometry>
        </mxCell>
        <mxCell id="qNQ-7Bjq-Vl5UrtKh8L8-5" value="Token" style="edgeLabel;html=1;align=center;verticalAlign=middle;resizable=0;points=[];" vertex="1" connectable="0" parent="4oKLL1NqWJiivFE0fkYg-8">
          <mxGeometry x="-0.3346" y="28" relative="1" as="geometry">
            <mxPoint x="-10" y="-12" as="offset" />
          </mxGeometry>
        </mxCell>
        <mxCell id="4oKLL1NqWJiivFE0fkYg-3" value="1.3&lt;br&gt;Se crea Token" style="ellipse;whiteSpace=wrap;html=1;aspect=fixed;" vertex="1" parent="1">
          <mxGeometry x="530" y="140" width="80" height="80" as="geometry" />
        </mxCell>
        <mxCell id="4oKLL1NqWJiivFE0fkYg-6" style="edgeStyle=orthogonalEdgeStyle;rounded=0;orthogonalLoop=1;jettySize=auto;html=1;exitX=0.5;exitY=0;exitDx=0;exitDy=0;entryX=0.5;entryY=1;entryDx=0;entryDy=0;" edge="1" parent="1" source="4oKLL1NqWJiivFE0fkYg-5" target="4oKLL1NqWJiivFE0fkYg-2">
          <mxGeometry relative="1" as="geometry" />
        </mxCell>
        <mxCell id="qNQ-7Bjq-Vl5UrtKh8L8-4" value="Usuario" style="edgeLabel;html=1;align=center;verticalAlign=middle;resizable=0;points=[];" vertex="1" connectable="0" parent="4oKLL1NqWJiivFE0fkYg-6">
          <mxGeometry x="-0.2833" y="-5" relative="1" as="geometry">
            <mxPoint x="-25" as="offset" />
          </mxGeometry>
        </mxCell>
        <mxCell id="4oKLL1NqWJiivFE0fkYg-5" value="Usuarios" style="shape=partialRectangle;whiteSpace=wrap;html=1;left=0;right=0;fillColor=none;" vertex="1" parent="1">
          <mxGeometry x="330" y="340" width="120" height="60" as="geometry" />
        </mxCell>
      </root>
    </mxGraphModel>
  </diagram>
  <diagram id="RqNsHYBxlF1tR5Z5aBbs" name="Nivel 2 Registro">
    <mxGraphModel dx="880" dy="460" grid="1" gridSize="10" guides="1" tooltips="1" connect="1" arrows="1" fold="1" page="1" pageScale="1" pageWidth="827" pageHeight="1169" math="0" shadow="0">
      <root>
        <mxCell id="0" />
        <mxCell id="1" parent="0" />
        <mxCell id="Kx2I6GooXPeIGvlHRR9i-5" style="edgeStyle=orthogonalEdgeStyle;rounded=0;orthogonalLoop=1;jettySize=auto;html=1;exitX=1;exitY=0.5;exitDx=0;exitDy=0;" edge="1" parent="1" source="Kx2I6GooXPeIGvlHRR9i-1" target="Kx2I6GooXPeIGvlHRR9i-3">
          <mxGeometry relative="1" as="geometry" />
        </mxCell>
        <mxCell id="Yiab5TfhHiY9-Q4foFZy-2" value="Token" style="edgeLabel;html=1;align=center;verticalAlign=middle;resizable=0;points=[];" vertex="1" connectable="0" parent="Kx2I6GooXPeIGvlHRR9i-5">
          <mxGeometry y="-1" relative="1" as="geometry">
            <mxPoint x="-15" y="-11" as="offset" />
          </mxGeometry>
        </mxCell>
        <mxCell id="XZcLSmgChjhqy7gpH03o-1" style="edgeStyle=orthogonalEdgeStyle;rounded=0;orthogonalLoop=1;jettySize=auto;html=1;exitX=0;exitY=0.5;exitDx=0;exitDy=0;startArrow=classic;startFill=1;endArrow=none;endFill=0;curved=1;" edge="1" parent="1" source="Kx2I6GooXPeIGvlHRR9i-1">
          <mxGeometry relative="1" as="geometry">
            <mxPoint x="40" y="120" as="targetPoint" />
          </mxGeometry>
        </mxCell>
        <mxCell id="Yiab5TfhHiY9-Q4foFZy-1" value="Token" style="edgeLabel;html=1;align=center;verticalAlign=middle;resizable=0;points=[];" vertex="1" connectable="0" parent="XZcLSmgChjhqy7gpH03o-1">
          <mxGeometry x="-0.2975" y="-14" relative="1" as="geometry">
            <mxPoint x="9" y="-16" as="offset" />
          </mxGeometry>
        </mxCell>
        <mxCell id="Kx2I6GooXPeIGvlHRR9i-1" value="2.1&lt;br&gt;&amp;nbsp;comprobación Permisos" style="ellipse;whiteSpace=wrap;html=1;aspect=fixed;" vertex="1" parent="1">
          <mxGeometry x="110" y="150" width="80" height="80" as="geometry" />
        </mxCell>
        <mxCell id="4jgfl0PbbkYhSSiF_1Yz-5" style="edgeStyle=orthogonalEdgeStyle;rounded=0;orthogonalLoop=1;jettySize=auto;html=1;exitX=0.5;exitY=1;exitDx=0;exitDy=0;" edge="1" parent="1" source="Kx2I6GooXPeIGvlHRR9i-2" target="4jgfl0PbbkYhSSiF_1Yz-3">
          <mxGeometry relative="1" as="geometry" />
        </mxCell>
        <mxCell id="Kx2I6GooXPeIGvlHRR9i-2" value="2.3&lt;br&gt;Guarda&lt;br&gt;en BD" style="ellipse;whiteSpace=wrap;html=1;aspect=fixed;" vertex="1" parent="1">
          <mxGeometry x="530" y="150" width="80" height="80" as="geometry" />
        </mxCell>
        <mxCell id="4jgfl0PbbkYhSSiF_1Yz-1" style="edgeStyle=orthogonalEdgeStyle;rounded=0;orthogonalLoop=1;jettySize=auto;html=1;exitX=1;exitY=0.5;exitDx=0;exitDy=0;" edge="1" parent="1" source="Kx2I6GooXPeIGvlHRR9i-3" target="Kx2I6GooXPeIGvlHRR9i-2">
          <mxGeometry relative="1" as="geometry">
            <mxPoint x="460" y="190" as="sourcePoint" />
          </mxGeometry>
        </mxCell>
        <mxCell id="yZTKOtdpPZBzVQSR2itm-1" value="Nuevo Usuario" style="edgeLabel;html=1;align=center;verticalAlign=middle;resizable=0;points=[];" vertex="1" connectable="0" parent="4jgfl0PbbkYhSSiF_1Yz-1">
          <mxGeometry x="-0.1714" y="2" relative="1" as="geometry">
            <mxPoint x="88" y="102" as="offset" />
          </mxGeometry>
        </mxCell>
        <mxCell id="Kx2I6GooXPeIGvlHRR9i-3" value="2.2&lt;br&gt;ingreso de datos validos" style="ellipse;whiteSpace=wrap;html=1;aspect=fixed;" vertex="1" parent="1">
          <mxGeometry x="300" y="150" width="80" height="80" as="geometry" />
        </mxCell>
        <mxCell id="4jgfl0PbbkYhSSiF_1Yz-3" value="Usuarios" style="shape=partialRectangle;whiteSpace=wrap;html=1;left=0;right=0;fillColor=none;" vertex="1" parent="1">
          <mxGeometry x="510" y="350" width="120" height="60" as="geometry" />
        </mxCell>
        <mxCell id="yZTKOtdpPZBzVQSR2itm-2" value="Nuevo Usuario" style="edgeLabel;html=1;align=center;verticalAlign=middle;resizable=0;points=[];" vertex="1" connectable="0" parent="1">
          <mxGeometry x="452" y="180" as="geometry" />
        </mxCell>
      </root>
    </mxGraphModel>
  </diagram>
  <diagram id="OiPS37eXlkEL4v7zCGdh" name="Nivel 2 Gestión de usuarios">
    <mxGraphModel dx="880" dy="460" grid="1" gridSize="10" guides="1" tooltips="1" connect="1" arrows="1" fold="1" page="1" pageScale="1" pageWidth="827" pageHeight="1169" math="0" shadow="0">
      <root>
        <mxCell id="0" />
        <mxCell id="1" parent="0" />
        <mxCell id="C9cERzfnm4dXFmix2cZz-1" style="edgeStyle=orthogonalEdgeStyle;rounded=0;orthogonalLoop=1;jettySize=auto;html=1;exitX=0.75;exitY=1;exitDx=0;exitDy=0;entryX=1;entryY=0.5;entryDx=0;entryDy=0;curved=1;" edge="1" parent="1" source="S3pWAqsm1U3a6MTpRphp-1" target="m0fYZ5XPsf5S1JDH53l2-1">
          <mxGeometry relative="1" as="geometry" />
        </mxCell>
        <mxCell id="S3pWAqsm1U3a6MTpRphp-1" value="Usuarios" style="shape=partialRectangle;whiteSpace=wrap;html=1;left=0;right=0;fillColor=none;" vertex="1" parent="1">
          <mxGeometry x="500" y="440" width="120" height="60" as="geometry" />
        </mxCell>
        <mxCell id="lEV_BgfqwqKX4sskY8c--4" style="edgeStyle=orthogonalEdgeStyle;rounded=0;orthogonalLoop=1;jettySize=auto;html=1;exitX=0.5;exitY=1;exitDx=0;exitDy=0;entryX=0.25;entryY=1;entryDx=0;entryDy=0;curved=1;" edge="1" parent="1" source="S3pWAqsm1U3a6MTpRphp-2" target="S3pWAqsm1U3a6MTpRphp-1">
          <mxGeometry relative="1" as="geometry" />
        </mxCell>
        <mxCell id="WqeCqCoTtkQVRmWdIVw4-3" value="Usuario Eliminado" style="edgeLabel;html=1;align=center;verticalAlign=middle;resizable=0;points=[];" vertex="1" connectable="0" parent="lEV_BgfqwqKX4sskY8c--4">
          <mxGeometry x="-0.1167" y="-3" relative="1" as="geometry">
            <mxPoint x="-19" y="7" as="offset" />
          </mxGeometry>
        </mxCell>
        <mxCell id="S3pWAqsm1U3a6MTpRphp-2" value="3.3&lt;br&gt;Eliminar&lt;br&gt;Usuario" style="ellipse;whiteSpace=wrap;html=1;aspect=fixed;" vertex="1" parent="1">
          <mxGeometry x="320" y="510" width="80" height="80" as="geometry" />
        </mxCell>
        <mxCell id="lEV_BgfqwqKX4sskY8c--1" style="edgeStyle=orthogonalEdgeStyle;rounded=0;orthogonalLoop=1;jettySize=auto;html=1;exitX=1;exitY=0.5;exitDx=0;exitDy=0;entryX=0.75;entryY=0;entryDx=0;entryDy=0;curved=1;" edge="1" parent="1" source="S3pWAqsm1U3a6MTpRphp-3" target="S3pWAqsm1U3a6MTpRphp-1">
          <mxGeometry relative="1" as="geometry" />
        </mxCell>
        <mxCell id="WqeCqCoTtkQVRmWdIVw4-2" value="Usuario modificado" style="edgeLabel;html=1;align=center;verticalAlign=middle;resizable=0;points=[];" vertex="1" connectable="0" parent="lEV_BgfqwqKX4sskY8c--1">
          <mxGeometry x="-0.4727" y="1" relative="1" as="geometry">
            <mxPoint x="22" y="-9" as="offset" />
          </mxGeometry>
        </mxCell>
        <mxCell id="S3pWAqsm1U3a6MTpRphp-3" value="3.2&lt;br&gt;Modificar Rol" style="ellipse;whiteSpace=wrap;html=1;aspect=fixed;" vertex="1" parent="1">
          <mxGeometry x="320" y="370" width="80" height="80" as="geometry" />
        </mxCell>
        <mxCell id="Lz0LcNp2vYWoGqb_X0fr-1" style="edgeStyle=orthogonalEdgeStyle;rounded=0;orthogonalLoop=1;jettySize=auto;html=1;exitX=0;exitY=0.5;exitDx=0;exitDy=0;curved=1;startArrow=classic;startFill=1;endArrow=none;endFill=0;" edge="1" parent="1" source="m0fYZ5XPsf5S1JDH53l2-1">
          <mxGeometry relative="1" as="geometry">
            <mxPoint x="60" y="420" as="targetPoint" />
          </mxGeometry>
        </mxCell>
        <mxCell id="lEV_BgfqwqKX4sskY8c--5" value="Token" style="edgeLabel;html=1;align=center;verticalAlign=middle;resizable=0;points=[];" vertex="1" connectable="0" parent="Lz0LcNp2vYWoGqb_X0fr-1">
          <mxGeometry x="0.1594" y="-13" relative="1" as="geometry">
            <mxPoint x="17" y="-8" as="offset" />
          </mxGeometry>
        </mxCell>
        <mxCell id="Lz0LcNp2vYWoGqb_X0fr-2" style="edgeStyle=orthogonalEdgeStyle;rounded=0;orthogonalLoop=1;jettySize=auto;html=1;exitX=1;exitY=0.5;exitDx=0;exitDy=0;entryX=0;entryY=0.5;entryDx=0;entryDy=0;curved=1;" edge="1" parent="1" source="S3pWAqsm1U3a6MTpRphp-4" target="S3pWAqsm1U3a6MTpRphp-3">
          <mxGeometry relative="1" as="geometry" />
        </mxCell>
        <mxCell id="Lz0LcNp2vYWoGqb_X0fr-3" style="edgeStyle=orthogonalEdgeStyle;rounded=0;orthogonalLoop=1;jettySize=auto;html=1;exitX=1;exitY=0.5;exitDx=0;exitDy=0;entryX=0;entryY=0.5;entryDx=0;entryDy=0;" edge="1" parent="1" source="S3pWAqsm1U3a6MTpRphp-4" target="S3pWAqsm1U3a6MTpRphp-2">
          <mxGeometry relative="1" as="geometry" />
        </mxCell>
        <mxCell id="m0fYZ5XPsf5S1JDH53l2-4" value="Usuario" style="edgeLabel;html=1;align=center;verticalAlign=middle;resizable=0;points=[];" vertex="1" connectable="0" parent="Lz0LcNp2vYWoGqb_X0fr-3">
          <mxGeometry x="0.16" relative="1" as="geometry">
            <mxPoint x="-38" as="offset" />
          </mxGeometry>
        </mxCell>
        <mxCell id="S3pWAqsm1U3a6MTpRphp-4" value="3.1&lt;br&gt;Mostrar Opciones" style="ellipse;whiteSpace=wrap;html=1;aspect=fixed;" vertex="1" parent="1">
          <mxGeometry x="140" y="510" width="80" height="80" as="geometry" />
        </mxCell>
        <mxCell id="m0fYZ5XPsf5S1JDH53l2-2" style="edgeStyle=orthogonalEdgeStyle;rounded=0;orthogonalLoop=1;jettySize=auto;html=1;exitX=0.5;exitY=0;exitDx=0;exitDy=0;entryX=0.5;entryY=1;entryDx=0;entryDy=0;" edge="1" parent="1" source="m0fYZ5XPsf5S1JDH53l2-1" target="S3pWAqsm1U3a6MTpRphp-4">
          <mxGeometry relative="1" as="geometry" />
        </mxCell>
        <mxCell id="m0fYZ5XPsf5S1JDH53l2-3" value="Usuario" style="edgeLabel;html=1;align=center;verticalAlign=middle;resizable=0;points=[];" vertex="1" connectable="0" parent="m0fYZ5XPsf5S1JDH53l2-2">
          <mxGeometry x="0.0444" relative="1" as="geometry">
            <mxPoint x="30" as="offset" />
          </mxGeometry>
        </mxCell>
        <mxCell id="m0fYZ5XPsf5S1JDH53l2-1" value="3.4&lt;br&gt;Busqueda de&lt;br&gt;Usuario" style="ellipse;whiteSpace=wrap;html=1;aspect=fixed;" vertex="1" parent="1">
          <mxGeometry x="140" y="680" width="80" height="80" as="geometry" />
        </mxCell>
      </root>
    </mxGraphModel>
  </diagram>
  <diagram id="zTJ9e8DeTp6ToQnVxrlE" name="Nivel 2 Gestion Documentos">
    <mxGraphModel dx="1035" dy="541" grid="1" gridSize="10" guides="1" tooltips="1" connect="1" arrows="1" fold="1" page="1" pageScale="1" pageWidth="827" pageHeight="1169" math="0" shadow="0">
      <root>
        <mxCell id="0" />
        <mxCell id="1" parent="0" />
        <mxCell id="rmsNId5fKC1Yo-fas879-1" value="4.3&lt;br&gt;Eliminar Documento" style="ellipse;whiteSpace=wrap;html=1;aspect=fixed;" vertex="1" parent="1">
          <mxGeometry x="370" y="200" width="80" height="80" as="geometry" />
        </mxCell>
        <mxCell id="u_kj4ZZm3Avy1lC42KHq-8" style="edgeStyle=orthogonalEdgeStyle;rounded=0;orthogonalLoop=1;jettySize=auto;html=1;exitX=0.5;exitY=1;exitDx=0;exitDy=0;curved=1;" edge="1" parent="1" source="rmsNId5fKC1Yo-fas879-2">
          <mxGeometry relative="1" as="geometry">
            <mxPoint x="740" y="320" as="targetPoint" />
          </mxGeometry>
        </mxCell>
        <mxCell id="rmsNId5fKC1Yo-fas879-2" value="4.4&lt;br&gt;Descargar Documento" style="ellipse;whiteSpace=wrap;html=1;aspect=fixed;" vertex="1" parent="1">
          <mxGeometry x="374" y="360" width="80" height="80" as="geometry" />
        </mxCell>
        <mxCell id="u_kj4ZZm3Avy1lC42KHq-5" style="edgeStyle=orthogonalEdgeStyle;rounded=0;orthogonalLoop=1;jettySize=auto;html=1;exitX=1;exitY=0.5;exitDx=0;exitDy=0;entryX=0.5;entryY=0;entryDx=0;entryDy=0;curved=1;" edge="1" parent="1" source="rmsNId5fKC1Yo-fas879-3" target="u_kj4ZZm3Avy1lC42KHq-4">
          <mxGeometry relative="1" as="geometry" />
        </mxCell>
        <mxCell id="M8czMafrUJfo8ScJFQbr-3" value="Documento" style="edgeLabel;html=1;align=center;verticalAlign=middle;resizable=0;points=[];" vertex="1" connectable="0" parent="u_kj4ZZm3Avy1lC42KHq-5">
          <mxGeometry x="-0.2517" y="-23" relative="1" as="geometry">
            <mxPoint x="9" y="-13" as="offset" />
          </mxGeometry>
        </mxCell>
        <mxCell id="rmsNId5fKC1Yo-fas879-3" value="4.2&lt;br&gt;Subir Documento" style="ellipse;whiteSpace=wrap;html=1;aspect=fixed;" vertex="1" parent="1">
          <mxGeometry x="374" y="40" width="80" height="80" as="geometry" />
        </mxCell>
        <mxCell id="u_kj4ZZm3Avy1lC42KHq-1" style="edgeStyle=orthogonalEdgeStyle;rounded=0;orthogonalLoop=1;jettySize=auto;html=1;exitX=1;exitY=0.5;exitDx=0;exitDy=0;entryX=0.5;entryY=0;entryDx=0;entryDy=0;curved=1;" edge="1" parent="1" source="rmsNId5fKC1Yo-fas879-4" target="ec9Srrpacm3mTvsvDDo2-1">
          <mxGeometry relative="1" as="geometry" />
        </mxCell>
        <mxCell id="q1ei6UWKm4drRCClhFqQ-1" value="Palabras clave" style="edgeLabel;html=1;align=center;verticalAlign=middle;resizable=0;points=[];" vertex="1" connectable="0" parent="u_kj4ZZm3Avy1lC42KHq-1">
          <mxGeometry x="-0.0429" y="1" relative="1" as="geometry">
            <mxPoint x="-51" y="19" as="offset" />
          </mxGeometry>
        </mxCell>
        <mxCell id="u_kj4ZZm3Avy1lC42KHq-2" style="edgeStyle=orthogonalEdgeStyle;rounded=0;orthogonalLoop=1;jettySize=auto;html=1;exitX=1;exitY=0.5;exitDx=0;exitDy=0;curved=1;" edge="1" parent="1" source="ec9Srrpacm3mTvsvDDo2-1" target="rmsNId5fKC1Yo-fas879-1">
          <mxGeometry relative="1" as="geometry">
            <Array as="points">
              <mxPoint x="310" y="410" />
              <mxPoint x="310" y="240" />
            </Array>
          </mxGeometry>
        </mxCell>
        <mxCell id="u_kj4ZZm3Avy1lC42KHq-3" style="edgeStyle=orthogonalEdgeStyle;rounded=0;orthogonalLoop=1;jettySize=auto;html=1;exitX=1;exitY=0.5;exitDx=0;exitDy=0;entryX=0;entryY=0.5;entryDx=0;entryDy=0;curved=1;" edge="1" parent="1" source="rmsNId5fKC1Yo-fas879-4" target="rmsNId5fKC1Yo-fas879-3">
          <mxGeometry relative="1" as="geometry" />
        </mxCell>
        <mxCell id="M8czMafrUJfo8ScJFQbr-2" value="Token" style="edgeLabel;html=1;align=center;verticalAlign=middle;resizable=0;points=[];" vertex="1" connectable="0" parent="u_kj4ZZm3Avy1lC42KHq-3">
          <mxGeometry x="0.0764" y="-2" relative="1" as="geometry">
            <mxPoint x="-69" y="82" as="offset" />
          </mxGeometry>
        </mxCell>
        <mxCell id="u_kj4ZZm3Avy1lC42KHq-9" style="edgeStyle=orthogonalEdgeStyle;rounded=0;orthogonalLoop=1;jettySize=auto;html=1;exitX=0;exitY=0.5;exitDx=0;exitDy=0;startArrow=classic;startFill=1;endArrow=none;endFill=0;curved=1;" edge="1" parent="1" source="rmsNId5fKC1Yo-fas879-4">
          <mxGeometry relative="1" as="geometry">
            <mxPoint x="30" y="170" as="targetPoint" />
          </mxGeometry>
        </mxCell>
        <mxCell id="M8czMafrUJfo8ScJFQbr-1" value="Token" style="edgeLabel;html=1;align=center;verticalAlign=middle;resizable=0;points=[];" vertex="1" connectable="0" parent="u_kj4ZZm3Avy1lC42KHq-9">
          <mxGeometry x="-0.3203" y="-7" relative="1" as="geometry">
            <mxPoint x="1" y="-13" as="offset" />
          </mxGeometry>
        </mxCell>
        <mxCell id="rmsNId5fKC1Yo-fas879-4" value="4.1&lt;br&gt;Mostrar opciones" style="ellipse;whiteSpace=wrap;html=1;aspect=fixed;" vertex="1" parent="1">
          <mxGeometry x="140" y="200" width="80" height="80" as="geometry" />
        </mxCell>
        <mxCell id="u_kj4ZZm3Avy1lC42KHq-7" style="edgeStyle=orthogonalEdgeStyle;rounded=0;orthogonalLoop=1;jettySize=auto;html=1;exitX=0.5;exitY=1;exitDx=0;exitDy=0;entryX=1;entryY=0.5;entryDx=0;entryDy=0;curved=1;" edge="1" parent="1" source="u_kj4ZZm3Avy1lC42KHq-4" target="rmsNId5fKC1Yo-fas879-2">
          <mxGeometry relative="1" as="geometry" />
        </mxCell>
        <mxCell id="u_kj4ZZm3Avy1lC42KHq-4" value="Documentos" style="shape=partialRectangle;whiteSpace=wrap;html=1;left=0;right=0;fillColor=none;" vertex="1" parent="1">
          <mxGeometry x="550" y="210" width="120" height="60" as="geometry" />
        </mxCell>
        <mxCell id="u_kj4ZZm3Avy1lC42KHq-6" style="edgeStyle=orthogonalEdgeStyle;rounded=0;orthogonalLoop=1;jettySize=auto;html=1;exitX=1;exitY=0.5;exitDx=0;exitDy=0;entryX=0.308;entryY=0.017;entryDx=0;entryDy=0;entryPerimeter=0;curved=1;" edge="1" parent="1" source="rmsNId5fKC1Yo-fas879-1" target="u_kj4ZZm3Avy1lC42KHq-4">
          <mxGeometry relative="1" as="geometry" />
        </mxCell>
        <mxCell id="M8czMafrUJfo8ScJFQbr-4" value="Documento" style="edgeLabel;html=1;align=center;verticalAlign=middle;resizable=0;points=[];" vertex="1" connectable="0" parent="1">
          <mxGeometry x="570" y="110" as="geometry">
            <mxPoint x="-68" y="66" as="offset" />
          </mxGeometry>
        </mxCell>
        <mxCell id="M8czMafrUJfo8ScJFQbr-5" value="Documento" style="edgeLabel;html=1;align=center;verticalAlign=middle;resizable=0;points=[];" vertex="1" connectable="0" parent="1">
          <mxGeometry x="650" y="470" as="geometry" />
        </mxCell>
        <mxCell id="M8czMafrUJfo8ScJFQbr-6" value="Documento&lt;br&gt;Encontrado" style="edgeLabel;html=1;align=center;verticalAlign=middle;resizable=0;points=[];" vertex="1" connectable="0" parent="1">
          <mxGeometry x="350" y="320" as="geometry">
            <mxPoint x="-2" y="-8" as="offset" />
          </mxGeometry>
        </mxCell>
        <mxCell id="ec9Srrpacm3mTvsvDDo2-2" style="edgeStyle=orthogonalEdgeStyle;rounded=0;orthogonalLoop=1;jettySize=auto;html=1;exitX=1;exitY=0.5;exitDx=0;exitDy=0;entryX=0.024;entryY=0.492;entryDx=0;entryDy=0;curved=1;entryPerimeter=0;" edge="1" parent="1" source="ec9Srrpacm3mTvsvDDo2-1" target="rmsNId5fKC1Yo-fas879-2">
          <mxGeometry relative="1" as="geometry">
            <Array as="points">
              <mxPoint x="350" y="410" />
              <mxPoint x="350" y="399" />
            </Array>
          </mxGeometry>
        </mxCell>
        <mxCell id="ec9Srrpacm3mTvsvDDo2-1" value="4.5&lt;br&gt;Buscar Documento" style="ellipse;whiteSpace=wrap;html=1;aspect=fixed;" vertex="1" parent="1">
          <mxGeometry x="180" y="370" width="80" height="80" as="geometry" />
        </mxCell>
        <mxCell id="ec9Srrpacm3mTvsvDDo2-3" value="Documento" style="edgeLabel;html=1;align=center;verticalAlign=middle;resizable=0;points=[];" vertex="1" connectable="0" parent="1">
          <mxGeometry x="530" y="370" as="geometry" />
        </mxCell>
        <mxCell id="ec9Srrpacm3mTvsvDDo2-4" value="Documento&lt;br&gt;Encontrado" style="edgeLabel;html=1;align=center;verticalAlign=middle;resizable=0;points=[];" vertex="1" connectable="0" parent="1">
          <mxGeometry x="330" y="440" as="geometry">
            <mxPoint x="-22" y="-12" as="offset" />
          </mxGeometry>
        </mxCell>
      </root>
    </mxGraphModel>
  </diagram>
  <diagram id="P1kP1SDdKUGepYn6jTlI" name="nivel 2 Gestion de videos">
    <mxGraphModel dx="880" dy="460" grid="1" gridSize="10" guides="1" tooltips="1" connect="1" arrows="1" fold="1" page="1" pageScale="1" pageWidth="827" pageHeight="1169" math="0" shadow="0">
      <root>
        <mxCell id="0" />
        <mxCell id="1" parent="0" />
        <mxCell id="uOwc1JmhAWHx0gP6DjJo-1" style="edgeStyle=orthogonalEdgeStyle;rounded=0;orthogonalLoop=1;jettySize=auto;html=1;exitX=0;exitY=0.5;exitDx=0;exitDy=0;startArrow=classic;startFill=1;endArrow=none;endFill=0;curved=1;" edge="1" parent="1" source="29ZGxGLS9_oJU9tUpHGU-1">
          <mxGeometry relative="1" as="geometry">
            <mxPoint x="40" y="180" as="targetPoint" />
          </mxGeometry>
        </mxCell>
        <mxCell id="1SEDvvGD_cjGqeD_HgvN-1" value="Token" style="edgeLabel;html=1;align=center;verticalAlign=middle;resizable=0;points=[];" vertex="1" connectable="0" parent="uOwc1JmhAWHx0gP6DjJo-1">
          <mxGeometry x="-0.1866" y="-10" relative="1" as="geometry">
            <mxPoint x="3" y="-10" as="offset" />
          </mxGeometry>
        </mxCell>
        <mxCell id="uOwc1JmhAWHx0gP6DjJo-2" style="edgeStyle=orthogonalEdgeStyle;rounded=0;orthogonalLoop=1;jettySize=auto;html=1;exitX=1;exitY=0.5;exitDx=0;exitDy=0;entryX=0;entryY=0.5;entryDx=0;entryDy=0;curved=1;" edge="1" parent="1" source="JknrFxFN1SbgxitONTAY-1" target="29ZGxGLS9_oJU9tUpHGU-2">
          <mxGeometry relative="1" as="geometry" />
        </mxCell>
        <mxCell id="uOwc1JmhAWHx0gP6DjJo-3" style="edgeStyle=orthogonalEdgeStyle;rounded=0;orthogonalLoop=1;jettySize=auto;html=1;exitX=1;exitY=0.5;exitDx=0;exitDy=0;entryX=0;entryY=0.5;entryDx=0;entryDy=0;curved=1;" edge="1" parent="1" source="29ZGxGLS9_oJU9tUpHGU-1" target="29ZGxGLS9_oJU9tUpHGU-4">
          <mxGeometry relative="1" as="geometry" />
        </mxCell>
        <mxCell id="1SEDvvGD_cjGqeD_HgvN-2" value="Token" style="edgeLabel;html=1;align=center;verticalAlign=middle;resizable=0;points=[];" vertex="1" connectable="0" parent="uOwc1JmhAWHx0gP6DjJo-3">
          <mxGeometry x="-0.1333" y="-2" relative="1" as="geometry">
            <mxPoint x="-47" y="68" as="offset" />
          </mxGeometry>
        </mxCell>
        <mxCell id="uOwc1JmhAWHx0gP6DjJo-4" style="edgeStyle=orthogonalEdgeStyle;rounded=0;orthogonalLoop=1;jettySize=auto;html=1;exitX=1;exitY=0.5;exitDx=0;exitDy=0;entryX=0;entryY=0.5;entryDx=0;entryDy=0;curved=1;" edge="1" parent="1" source="JknrFxFN1SbgxitONTAY-1" target="29ZGxGLS9_oJU9tUpHGU-3">
          <mxGeometry relative="1" as="geometry" />
        </mxCell>
        <mxCell id="JknrFxFN1SbgxitONTAY-2" style="edgeStyle=orthogonalEdgeStyle;rounded=0;orthogonalLoop=1;jettySize=auto;html=1;exitX=0.5;exitY=1;exitDx=0;exitDy=0;entryX=0.5;entryY=0;entryDx=0;entryDy=0;" edge="1" parent="1" source="29ZGxGLS9_oJU9tUpHGU-1" target="JknrFxFN1SbgxitONTAY-1">
          <mxGeometry relative="1" as="geometry" />
        </mxCell>
        <mxCell id="JknrFxFN1SbgxitONTAY-4" value="Palabras clave" style="edgeLabel;html=1;align=center;verticalAlign=middle;resizable=0;points=[];" vertex="1" connectable="0" parent="JknrFxFN1SbgxitONTAY-2">
          <mxGeometry y="-2" relative="1" as="geometry">
            <mxPoint x="-38" as="offset" />
          </mxGeometry>
        </mxCell>
        <mxCell id="29ZGxGLS9_oJU9tUpHGU-1" value="5.1&lt;br&gt;Mostrar Opciones" style="ellipse;whiteSpace=wrap;html=1;aspect=fixed;" vertex="1" parent="1">
          <mxGeometry x="160" y="200" width="80" height="80" as="geometry" />
        </mxCell>
        <mxCell id="uOwc1JmhAWHx0gP6DjJo-6" style="edgeStyle=orthogonalEdgeStyle;rounded=0;orthogonalLoop=1;jettySize=auto;html=1;exitX=1;exitY=0.5;exitDx=0;exitDy=0;entryX=0.25;entryY=0;entryDx=0;entryDy=0;curved=1;" edge="1" parent="1" source="29ZGxGLS9_oJU9tUpHGU-2" target="uOwc1JmhAWHx0gP6DjJo-5">
          <mxGeometry relative="1" as="geometry" />
        </mxCell>
        <mxCell id="29ZGxGLS9_oJU9tUpHGU-2" value="5.3&lt;br&gt;Eliminar Video" style="ellipse;whiteSpace=wrap;html=1;aspect=fixed;" vertex="1" parent="1">
          <mxGeometry x="370" y="200" width="80" height="80" as="geometry" />
        </mxCell>
        <mxCell id="A34NvkunEIS_USp5zGxw-1" style="edgeStyle=orthogonalEdgeStyle;rounded=0;orthogonalLoop=1;jettySize=auto;html=1;exitX=0.5;exitY=1;exitDx=0;exitDy=0;curved=1;" edge="1" parent="1" source="29ZGxGLS9_oJU9tUpHGU-3">
          <mxGeometry relative="1" as="geometry">
            <mxPoint x="814" y="320" as="targetPoint" />
          </mxGeometry>
        </mxCell>
        <mxCell id="A34NvkunEIS_USp5zGxw-2" value="Video" style="edgeLabel;html=1;align=center;verticalAlign=middle;resizable=0;points=[];" vertex="1" connectable="0" parent="A34NvkunEIS_USp5zGxw-1">
          <mxGeometry x="-0.5037" relative="1" as="geometry">
            <mxPoint x="30" y="-10" as="offset" />
          </mxGeometry>
        </mxCell>
        <mxCell id="29ZGxGLS9_oJU9tUpHGU-3" value="5.4&lt;br&gt;Ver Video" style="ellipse;whiteSpace=wrap;html=1;aspect=fixed;" vertex="1" parent="1">
          <mxGeometry x="370" y="400" width="80" height="80" as="geometry" />
        </mxCell>
        <mxCell id="uOwc1JmhAWHx0gP6DjJo-7" style="edgeStyle=orthogonalEdgeStyle;rounded=0;orthogonalLoop=1;jettySize=auto;html=1;exitX=1;exitY=0.5;exitDx=0;exitDy=0;entryX=0.75;entryY=0;entryDx=0;entryDy=0;curved=1;" edge="1" parent="1" source="29ZGxGLS9_oJU9tUpHGU-4" target="uOwc1JmhAWHx0gP6DjJo-5">
          <mxGeometry relative="1" as="geometry" />
        </mxCell>
        <mxCell id="1SEDvvGD_cjGqeD_HgvN-5" value="Video" style="edgeLabel;html=1;align=center;verticalAlign=middle;resizable=0;points=[];" vertex="1" connectable="0" parent="uOwc1JmhAWHx0gP6DjJo-7">
          <mxGeometry x="-0.4955" y="-6" relative="1" as="geometry">
            <mxPoint x="-51" y="174" as="offset" />
          </mxGeometry>
        </mxCell>
        <mxCell id="29ZGxGLS9_oJU9tUpHGU-4" value="5.2&lt;br&gt;Agregar Video" style="ellipse;whiteSpace=wrap;html=1;aspect=fixed;" vertex="1" parent="1">
          <mxGeometry x="370" width="80" height="80" as="geometry" />
        </mxCell>
        <mxCell id="uOwc1JmhAWHx0gP6DjJo-8" style="edgeStyle=orthogonalEdgeStyle;rounded=0;orthogonalLoop=1;jettySize=auto;html=1;exitX=0.5;exitY=1;exitDx=0;exitDy=0;entryX=1;entryY=0.5;entryDx=0;entryDy=0;curved=1;" edge="1" parent="1" source="uOwc1JmhAWHx0gP6DjJo-5" target="29ZGxGLS9_oJU9tUpHGU-3">
          <mxGeometry relative="1" as="geometry" />
        </mxCell>
        <mxCell id="uOwc1JmhAWHx0gP6DjJo-5" value="Videos" style="shape=partialRectangle;whiteSpace=wrap;html=1;left=0;right=0;fillColor=none;" vertex="1" parent="1">
          <mxGeometry x="630" y="210" width="120" height="60" as="geometry" />
        </mxCell>
        <mxCell id="1SEDvvGD_cjGqeD_HgvN-7" value="Video" style="edgeLabel;html=1;align=center;verticalAlign=middle;resizable=0;points=[];" vertex="1" connectable="0" parent="1">
          <mxGeometry x="590" y="400" as="geometry" />
        </mxCell>
        <mxCell id="1SEDvvGD_cjGqeD_HgvN-8" value="Video" style="edgeLabel;html=1;align=center;verticalAlign=middle;resizable=0;points=[];" vertex="1" connectable="0" parent="1">
          <mxGeometry x="580" y="66" as="geometry" />
        </mxCell>
        <mxCell id="JknrFxFN1SbgxitONTAY-1" value="5.5&lt;br&gt;Búsqueda de&lt;br&gt;Videos" style="ellipse;whiteSpace=wrap;html=1;aspect=fixed;" vertex="1" parent="1">
          <mxGeometry x="160" y="330" width="80" height="80" as="geometry" />
        </mxCell>
        <mxCell id="JknrFxFN1SbgxitONTAY-3" value="Token" style="edgeLabel;html=1;align=center;verticalAlign=middle;resizable=0;points=[];" vertex="1" connectable="0" parent="1">
          <mxGeometry x="260" y="360" as="geometry" />
        </mxCell>
      </root>
    </mxGraphModel>
  </diagram>
</mxfile>
